<svg width="100" height="100" viewBox="0 0 100 100" fill="none" xmlns="http://www.w3.org/2000/svg">
<g clip-path="url(#clip0_3001_276)">
<rect width="100" height="100" rx="50" fill="white"/>
<path d="M49.056 84.0948C44.0078 84.0948 39.1116 83.4258 34.3675 82.0877C29.6842 80.6888 25.9132 78.8945 23.0545 76.7049L28.0724 65.5744C30.8094 67.5816 34.0634 69.1934 37.8343 70.4098C41.6053 71.6262 45.3763 72.2345 49.1473 72.2345C53.344 72.2345 56.4459 71.6262 58.4531 70.4098C60.4602 69.1325 61.4638 67.4599 61.4638 65.392C61.4638 63.8714 60.8555 62.6246 59.6391 61.6514C58.4835 60.6174 56.9629 59.7963 55.0774 59.1881C53.2528 58.5799 50.7591 57.9108 47.5963 57.181C42.7305 56.0253 38.7467 54.8697 35.6447 53.7141C32.5428 52.5585 29.8666 50.7034 27.6162 48.1489C25.4266 45.5943 24.3318 42.1883 24.3318 37.9307C24.3318 34.2206 25.3354 30.8754 27.3425 27.8951C29.3496 24.8539 32.3603 22.4515 36.3746 20.6876C40.4497 18.9238 45.4067 18.0419 51.2456 18.0419C55.3207 18.0419 59.3046 18.5284 63.1972 19.5016C67.0898 20.4748 70.4959 21.8737 73.4153 23.6983L68.8537 34.92C62.9539 31.5748 57.0542 29.9022 51.1544 29.9022C47.0185 29.9022 43.947 30.5712 41.9398 31.9093C39.9935 33.2474 39.0204 35.0113 39.0204 37.2009C39.0204 39.3905 40.1456 41.0327 42.396 42.1275C44.7072 43.1614 48.2045 44.1954 52.8878 45.2294C57.7536 46.385 61.7375 47.5406 64.8394 48.6963C67.9413 49.8519 70.5871 51.6766 72.7767 54.1703C75.0271 56.664 76.1523 60.0396 76.1523 64.2972C76.1523 67.9465 75.1184 71.2917 73.0504 74.3328C71.0433 77.3131 68.0022 79.6852 63.9271 81.449C59.852 83.2129 54.895 84.0948 49.056 84.0948Z" fill="#252B42"/>
</g>
<defs>
<clipPath id="clip0_3001_276">
<rect width="100" height="100" rx="50" fill="white"/>
</clipPath>
</defs>
</svg>
